# WaveFront *.obj file (generated by Cinema 4D)

mtllib ./Монета.mtl

v 2.88902997970581 0.69999998807907 2.28643608093262
v 2.7148425579071 0.69999998807907 2.36758327484131
v 2.53695225715637 0.69999998807907 2.43187165260315
v 2.41630172729492 0.69999998807907 2.46536445617676
v 2.29400563240051 0.69999998807907 2.49136447906494
v 2.01429390907288 0.69999998807907 2.52881383895874
v 1.82707989215851 0.69999998807907 2.54066109657288
v 1.63269817829132 0.69999998807907 2.54318785667419
v 1.35330331325531 0.69999998807907 2.52879929542542
v 1.11810708045959 0.69999998807907 2.49489402770996
v 0.92197477817535 0.69999998807907 2.44808959960938
v 0.73801308870316 0.69999998807907 2.38559937477112
v 0.58703017234802 0.69999998807907 2.31805276870728
v 0.50493782758713 0.69999998807907 2.2740626335144
v 0.42588812112808 0.69999998807907 2.22615122795105
v 0.27691656351089 0.69999998807907 2.12020230293274
v 0.14011551439762 0.69999998807907 2.00184512138367
v 0.01548495702446 0.69999998807907 1.87107968330383
v -0.09697511047125 0.69999998807907 1.72790586948395
v -0.19726467132568 0.69999998807907 1.5723237991333
v -0.25376531481743 0.69999998807907 1.46878385543823
v -0.30551186203957 0.69999998807907 1.36039698123932
v 1.37670814990997 0.69999998807907 1.36039698123932
v 1.70583808422089 0.69999998807907 0.37270566821098
v -0.5371218919754 0.69999998807907 0.37270566821098
v -0.54416924715042 0.69999998807907 0.30144870281219
v -0.54778814315796 0.69999998807907 0.23247788846493
v -0.549311876297 0.69999998807907 0.09225010871887
v -0.54169315099716 0.69999998807907 -0.12571263313293
v -0.52493184804916 0.69999998807907 -0.33453008532524
v 1.94963812828064 0.69999998807907 -0.33453008532524
v 2.26657819747925 0.69999998807907 -1.31002771854401
v -0.22018188238144 0.69999998807907 -1.31002771854401
v -0.11724646389484 0.69999998807907 -1.4873925447464
v -0.00098129501566 0.69999998807907 -1.65157163143158
v 0.12861363589764 0.69999998807907 -1.80256521701813
v 0.27153834700584 0.69999998807907 -1.94037306308746
v 0.39191764593124 0.69999998807907 -2.03844094276428
v 0.52036064863205 0.69999998807907 -2.12853240966797
v 0.67632436752319 0.69999998807907 -2.21926856040955
v 0.84141594171524 0.69999998807907 -2.29466986656189
v 1.01563549041748 0.69999998807907 -2.354736328125
v 1.19898283481598 0.69999998807907 -2.39946794509888
v 1.41615927219391 0.69999998807907 -2.43146109580994
v 1.64488816261292 0.69999998807907 -2.44404578208923
v 1.9064382314682 0.69999998807907 -2.43256783485413
v 2.04785299301147 0.69999998807907 -2.41623616218567
v 2.19496178627014 0.69999998807907 -2.39069724082947
v 2.41615676879883 0.69999998807907 -2.33479070663452
v 2.55092692375183 0.69999998807907 -2.2895348072052
v 2.68103814125061 0.69999998807907 -2.23675036430359
v 3.32710814476013 0.69999998807907 -3.96654033660889
v 2.94720435142517 0.69999998807907 -4.10014533996582
v 2.70360422134399 0.69999998807907 -4.16629028320312
v 2.45857071876526 0.69999998807907 -4.21775341033936
v 2.01744508743286 0.69999998807907 -4.27656078338623
v 1.57174813747406 0.69999998807907 -4.29540205001831
v 1.03194785118103 0.69999998807907 -4.26477003097534
v 0.57812756299973 0.69999998807907 -4.19528818130493
v 0.20111000537872 0.69999998807907 -4.10186958312988
v -0.1571706533432 0.69999998807907 -3.97800397872925
v -0.49671447277069 0.69999998807907 -3.82369089126587
v -0.77283900976181 0.69999998807907 -3.66718935966492
v -1.03519761562347 0.69999998807907 -3.48831820487976
v -1.3201996088028 0.69999998807907 -3.25493454933167
v -1.57909536361694 0.69999998807907 -2.99824666976929
v -1.81188488006592 0.69999998807907 -2.71825480461121
v -2.01856827735901 0.69999998807907 -2.41495847702026
v -2.19914555549622 0.69999998807907 -2.0883584022522
v -2.35361647605896 0.69999998807907 -1.73845398426056
v -2.49818801879883 0.69999998807907 -1.31002771854401
v -3.59528803825378 0.69999998807907 -1.31002771854401
v -3.59528803825378 0.69999998807907 -0.33453008532524
v -2.68103814125061 0.69999998807907 -0.33453008532524
v -2.69170427322388 0.69999998807907 -0.11351891607046
v -2.69322800636292 0.69999998807907 0.1166375502944
v -2.69322800636292 0.69999998807907 0.37270566821098
v -3.59528803825378 0.69999998807907 0.37270566821098
v -3.59528803825378 0.69999998807907 1.36039698123932
v -2.55913805961609 0.69999998807907 1.36039698123932
v -2.43896126747131 0.69999998807907 1.80794239044189
v -2.30285954475403 0.69999998807907 2.17294430732727
v -2.13787436485291 0.69999998807907 2.51311898231506
v -1.94400537014008 0.69999998807907 2.82846665382385
v -1.754842877388 0.69999998807907 3.07900452613831
v -1.5444598197937 0.69999998807907 3.31130194664001
v -1.39241516590118 0.69999998807907 3.45603322982788
v -1.18909645080566 0.69999998807907 3.62554740905762
v -0.92685478925705 0.69999998807907 3.80981755256653
v -0.64577865600586 0.69999998807907 3.9709939956665
v -0.34586808085442 0.69999998807907 4.10907697677612
v 0.02783224545419 0.69999998807907 4.24098587036133
v 0.42716836929321 0.69999998807907 4.34146213531494
v 0.91494327783585 0.69999998807907 4.41780233383179
v 1.23680591583252 0.69999998807907 4.44466686248779
v 1.57174813747406 0.69999998807907 4.45549392700195
v 2.00907492637634 0.69999998807907 4.43607330322266
v 2.29838633537292 0.69999998807907 4.4011926651001
v 2.60637426376343 0.69999998807907 4.34434843063354
v 2.990238904953 0.69999998807907 4.24276971817017
v 3.28629589080811 0.69999998807907 4.13881540298462
v 3.59528803825378 0.69999998807907 4.00482177734375
v 2.88902997970581 -0.80000001192093 2.28643608093262
v 2.7148425579071 -0.80000001192093 2.36758327484131
v 2.53695225715637 -0.80000001192093 2.43187165260315
v 2.41630172729492 -0.80000001192093 2.46536445617676
v 2.29400563240051 -0.80000001192093 2.49136447906494
v 2.01429390907288 -0.80000001192093 2.52881383895874
v 1.82707989215851 -0.80000001192093 2.54066109657288
v 1.63269817829132 -0.80000001192093 2.54318785667419
v 1.35330331325531 -0.80000001192093 2.52879929542542
v 1.11810708045959 -0.80000001192093 2.49489402770996
v 0.92197477817535 -0.80000001192093 2.44808959960938
v 0.73801308870316 -0.80000001192093 2.38559937477112
v 0.58703017234802 -0.80000001192093 2.31805276870728
v 0.50493782758713 -0.80000001192093 2.2740626335144
v 0.42588812112808 -0.80000001192093 2.22615122795105
v 0.27691656351089 -0.80000001192093 2.12020230293274
v 0.14011551439762 -0.80000001192093 2.00184512138367
v 0.01548495702446 -0.80000001192093 1.87107968330383
v -0.09697511047125 -0.80000001192093 1.72790586948395
v -0.19726467132568 -0.80000001192093 1.5723237991333
v -0.25376531481743 -0.80000001192093 1.46878385543823
v -0.30551186203957 -0.80000001192093 1.36039698123932
v 1.37670814990997 -0.80000001192093 1.36039698123932
v 1.70583808422089 -0.80000001192093 0.37270566821098
v -0.5371218919754 -0.80000001192093 0.37270566821098
v -0.54416924715042 -0.80000001192093 0.30144870281219
v -0.54778814315796 -0.80000001192093 0.23247788846493
v -0.549311876297 -0.80000001192093 0.09225010871887
v -0.54169315099716 -0.80000001192093 -0.12571263313293
v -0.52493184804916 -0.80000001192093 -0.33453008532524
v 1.94963812828064 -0.80000001192093 -0.33453008532524
v 2.26657819747925 -0.80000001192093 -1.31002771854401
v -0.22018188238144 -0.80000001192093 -1.31002771854401
v -0.11724646389484 -0.80000001192093 -1.4873925447464
v -0.00098129501566 -0.80000001192093 -1.65157163143158
v 0.12861363589764 -0.80000001192093 -1.80256521701813
v 0.27153834700584 -0.80000001192093 -1.94037306308746
v 0.39191764593124 -0.80000001192093 -2.03844094276428
v 0.52036064863205 -0.80000001192093 -2.12853240966797
v 0.67632436752319 -0.80000001192093 -2.21926856040955
v 0.84141594171524 -0.80000001192093 -2.29466986656189
v 1.01563549041748 -0.80000001192093 -2.354736328125
v 1.19898283481598 -0.80000001192093 -2.39946794509888
v 1.41615927219391 -0.80000001192093 -2.43146109580994
v 1.64488816261292 -0.80000001192093 -2.44404578208923
v 1.9064382314682 -0.80000001192093 -2.43256783485413
v 2.04785299301147 -0.80000001192093 -2.41623616218567
v 2.19496178627014 -0.80000001192093 -2.39069724082947
v 2.41615676879883 -0.80000001192093 -2.33479070663452
v 2.55092692375183 -0.80000001192093 -2.2895348072052
v 2.68103814125061 -0.80000001192093 -2.23675036430359
v 3.32710814476013 -0.80000001192093 -3.96654033660889
v 2.94720435142517 -0.80000001192093 -4.10014533996582
v 2.70360422134399 -0.80000001192093 -4.16629028320312
v 2.45857071876526 -0.80000001192093 -4.21775341033936
v 2.01744508743286 -0.80000001192093 -4.27656078338623
v 1.57174813747406 -0.80000001192093 -4.29540205001831
v 1.03194785118103 -0.80000001192093 -4.26477003097534
v 0.57812756299973 -0.80000001192093 -4.19528818130493
v 0.20111000537872 -0.80000001192093 -4.10186958312988
v -0.1571706533432 -0.80000001192093 -3.97800397872925
v -0.49671447277069 -0.80000001192093 -3.82369089126587
v -0.77283900976181 -0.80000001192093 -3.66718935966492
v -1.03519761562347 -0.80000001192093 -3.48831820487976
v -1.3201996088028 -0.80000001192093 -3.25493454933167
v -1.57909536361694 -0.80000001192093 -2.99824666976929
v -1.81188488006592 -0.80000001192093 -2.71825480461121
v -2.01856827735901 -0.80000001192093 -2.41495847702026
v -2.19914555549622 -0.80000001192093 -2.0883584022522
v -2.35361647605896 -0.80000001192093 -1.73845398426056
v -2.49818801879883 -0.80000001192093 -1.31002771854401
v -3.59528803825378 -0.80000001192093 -1.31002771854401
v -3.59528803825378 -0.80000001192093 -0.33453008532524
v -2.68103814125061 -0.80000001192093 -0.33453008532524
v -2.69170427322388 -0.80000001192093 -0.11351891607046
v -2.69322800636292 -0.80000001192093 0.1166375502944
v -2.69322800636292 -0.80000001192093 0.37270566821098
v -3.59528803825378 -0.80000001192093 0.37270566821098
v -3.59528803825378 -0.80000001192093 1.36039698123932
v -2.55913805961609 -0.80000001192093 1.36039698123932
v -2.43896126747131 -0.80000001192093 1.80794239044189
v -2.30285954475403 -0.80000001192093 2.17294430732727
v -2.13787436485291 -0.80000001192093 2.51311898231506
v -1.94400537014008 -0.80000001192093 2.82846665382385
v -1.754842877388 -0.80000001192093 3.07900452613831
v -1.5444598197937 -0.80000001192093 3.31130194664001
v -1.39241516590118 -0.80000001192093 3.45603322982788
v -1.18909645080566 -0.80000001192093 3.62554740905762
v -0.92685478925705 -0.80000001192093 3.80981755256653
v -0.64577865600586 -0.80000001192093 3.9709939956665
v -0.34586808085442 -0.80000001192093 4.10907697677612
v 0.02783224545419 -0.80000001192093 4.24098587036133
v 0.42716836929321 -0.80000001192093 4.34146213531494
v 0.91494327783585 -0.80000001192093 4.41780233383179
v 1.23680591583252 -0.80000001192093 4.44466686248779
v 1.57174813747406 -0.80000001192093 4.45549392700195
v 2.00907492637634 -0.80000001192093 4.43607330322266
v 2.29838633537292 -0.80000001192093 4.4011926651001
v 2.60637426376343 -0.80000001192093 4.34434843063354
v 2.990238904953 -0.80000001192093 4.24276971817017
v 3.28629589080811 -0.80000001192093 4.13881540298462
v 3.59528803825378 -0.80000001192093 4.00482177734375
v 8 -0.75 0
v 9 -0.75 0
v 9 -0.375 0
v 9 0 0
v 9 0.375 0
v 9 0.75 0
v 8 0.75 0
v 8 0.375 0
v 8 0 0
v 8 -0.375 0
v 7.60845232009888 -0.75 -2.4721360206604
v 8.55950832366943 -0.75 -2.78115296363831
v 8.55950832366943 -0.375 -2.78115296363831
v 8.55950832366943 0 -2.78115296363831
v 8.55950832366943 0.375 -2.78115296363831
v 8.55950832366943 0.75 -2.78115296363831
v 7.60845232009888 0.75 -2.4721360206604
v 7.60845232009888 0.375 -2.4721360206604
v 7.60845232009888 0 -2.4721360206604
v 7.60845232009888 -0.375 -2.4721360206604
v 6.4721360206604 -0.75 -4.7022819519043
v 7.28115272521973 -0.75 -5.29006719589233
v 7.28115272521973 -0.375 -5.29006719589233
v 7.28115272521973 0 -5.29006719589233
v 7.28115272521973 0.375 -5.29006719589233
v 7.28115272521973 0.75 -5.29006719589233
v 6.4721360206604 0.75 -4.7022819519043
v 6.4721360206604 0.375 -4.7022819519043
v 6.4721360206604 0 -4.7022819519043
v 6.4721360206604 -0.375 -4.7022819519043
v 4.7022819519043 -0.75 -6.4721360206604
v 5.29006719589233 -0.75 -7.28115272521973
v 5.29006719589233 -0.375 -7.28115272521973
v 5.29006719589233 0 -7.28115272521973
v 5.29006719589233 0.375 -7.28115272521973
v 5.29006719589233 0.75 -7.28115272521973
v 4.7022819519043 0.75 -6.4721360206604
v 4.7022819519043 0.375 -6.4721360206604
v 4.7022819519043 0 -6.4721360206604
v 4.7022819519043 -0.375 -6.4721360206604
v 2.4721360206604 -0.75 -7.60845232009888
v 2.78115296363831 -0.75 -8.55950832366943
v 2.78115296363831 -0.375 -8.55950832366943
v 2.78115296363831 0 -8.55950832366943
v 2.78115296363831 0.375 -8.55950832366943
v 2.78115296363831 0.75 -8.55950832366943
v 2.4721360206604 0.75 -7.60845232009888
v 2.4721360206604 0.375 -7.60845232009888
v 2.4721360206604 0 -7.60845232009888
v 2.4721360206604 -0.375 -7.60845232009888
v 0 -0.75 -8
v 0 -0.75 -9
v 0 -0.375 -9
v 0 0 -9
v 0 0.375 -9
v 0 0.75 -9
v 0 0.75 -8
v 0 0.375 -8
v 0 0 -8
v 0 -0.375 -8
v -2.4721360206604 -0.75 -7.60845232009888
v -2.78115296363831 -0.75 -8.55950832366943
v -2.78115296363831 -0.375 -8.55950832366943
v -2.78115296363831 0 -8.55950832366943
v -2.78115296363831 0.375 -8.55950832366943
v -2.78115296363831 0.75 -8.55950832366943
v -2.4721360206604 0.75 -7.60845232009888
v -2.4721360206604 0.375 -7.60845232009888
v -2.4721360206604 0 -7.60845232009888
v -2.4721360206604 -0.375 -7.60845232009888
v -4.7022819519043 -0.75 -6.4721360206604
v -5.29006719589233 -0.75 -7.28115272521973
v -5.29006719589233 -0.375 -7.28115272521973
v -5.29006719589233 0 -7.28115272521973
v -5.29006719589233 0.375 -7.28115272521973
v -5.29006719589233 0.75 -7.28115272521973
v -4.7022819519043 0.75 -6.4721360206604
v -4.7022819519043 0.375 -6.4721360206604
v -4.7022819519043 0 -6.4721360206604
v -4.7022819519043 -0.375 -6.4721360206604
v -6.4721360206604 -0.75 -4.7022819519043
v -7.28115272521973 -0.75 -5.29006719589233
v -7.28115272521973 -0.375 -5.29006719589233
v -7.28115272521973 0 -5.29006719589233
v -7.28115272521973 0.375 -5.29006719589233
v -7.28115272521973 0.75 -5.29006719589233
v -6.4721360206604 0.75 -4.7022819519043
v -6.4721360206604 0.375 -4.7022819519043
v -6.4721360206604 0 -4.7022819519043
v -6.4721360206604 -0.375 -4.7022819519043
v -7.60845232009888 -0.75 -2.4721360206604
v -8.55950832366943 -0.75 -2.78115296363831
v -8.55950832366943 -0.375 -2.78115296363831
v -8.55950832366943 0 -2.78115296363831
v -8.55950832366943 0.375 -2.78115296363831
v -8.55950832366943 0.75 -2.78115296363831
v -7.60845232009888 0.75 -2.4721360206604
v -7.60845232009888 0.375 -2.4721360206604
v -7.60845232009888 0 -2.4721360206604
v -7.60845232009888 -0.375 -2.4721360206604
v -8 -0.75 0
v -9 -0.75 0
v -9 -0.375 0
v -9 0 0
v -9 0.375 0
v -9 0.75 0
v -8 0.75 0
v -8 0.375 0
v -8 0 0
v -8 -0.375 0
v -7.60845232009888 -0.75 2.4721360206604
v -8.55950832366943 -0.75 2.78115296363831
v -8.55950832366943 -0.375 2.78115296363831
v -8.55950832366943 0 2.78115296363831
v -8.55950832366943 0.375 2.78115296363831
v -8.55950832366943 0.75 2.78115296363831
v -7.60845232009888 0.75 2.4721360206604
v -7.60845232009888 0.375 2.4721360206604
v -7.60845232009888 0 2.4721360206604
v -7.60845232009888 -0.375 2.4721360206604
v -6.4721360206604 -0.75 4.7022819519043
v -7.28115272521973 -0.75 5.29006719589233
v -7.28115272521973 -0.375 5.29006719589233
v -7.28115272521973 0 5.29006719589233
v -7.28115272521973 0.375 5.29006719589233
v -7.28115272521973 0.75 5.29006719589233
v -6.4721360206604 0.75 4.7022819519043
v -6.4721360206604 0.375 4.7022819519043
v -6.4721360206604 0 4.7022819519043
v -6.4721360206604 -0.375 4.7022819519043
v -4.7022819519043 -0.75 6.4721360206604
v -5.29006719589233 -0.75 7.28115272521973
v -5.29006719589233 -0.375 7.28115272521973
v -5.29006719589233 0 7.28115272521973
v -5.29006719589233 0.375 7.28115272521973
v -5.29006719589233 0.75 7.28115272521973
v -4.7022819519043 0.75 6.4721360206604
v -4.7022819519043 0.375 6.4721360206604
v -4.7022819519043 0 6.4721360206604
v -4.7022819519043 -0.375 6.4721360206604
v -2.4721360206604 -0.75 7.60845232009888
v -2.78115296363831 -0.75 8.55950832366943
v -2.78115296363831 -0.375 8.55950832366943
v -2.78115296363831 0 8.55950832366943
v -2.78115296363831 0.375 8.55950832366943
v -2.78115296363831 0.75 8.55950832366943
v -2.4721360206604 0.75 7.60845232009888
v -2.4721360206604 0.375 7.60845232009888
v -2.4721360206604 0 7.60845232009888
v -2.4721360206604 -0.375 7.60845232009888
v 0 -0.75 8
v 0 -0.75 9
v 0 -0.375 9
v 0 0 9
v 0 0.375 9
v 0 0.75 9
v 0 0.75 8
v 0 0.375 8
v 0 0 8
v 0 -0.375 8
v 2.4721360206604 -0.75 7.60845232009888
v 2.78115296363831 -0.75 8.55950832366943
v 2.78115296363831 -0.375 8.55950832366943
v 2.78115296363831 0 8.55950832366943
v 2.78115296363831 0.375 8.55950832366943
v 2.78115296363831 0.75 8.55950832366943
v 2.4721360206604 0.75 7.60845232009888
v 2.4721360206604 0.375 7.60845232009888
v 2.4721360206604 0 7.60845232009888
v 2.4721360206604 -0.375 7.60845232009888
v 4.7022819519043 -0.75 6.4721360206604
v 5.29006719589233 -0.75 7.28115272521973
v 5.29006719589233 -0.375 7.28115272521973
v 5.29006719589233 0 7.28115272521973
v 5.29006719589233 0.375 7.28115272521973
v 5.29006719589233 0.75 7.28115272521973
v 4.7022819519043 0.75 6.4721360206604
v 4.7022819519043 0.375 6.4721360206604
v 4.7022819519043 0 6.4721360206604
v 4.7022819519043 -0.375 6.4721360206604
v 6.4721360206604 -0.75 4.7022819519043
v 7.28115272521973 -0.75 5.29006719589233
v 7.28115272521973 -0.375 5.29006719589233
v 7.28115272521973 0 5.29006719589233
v 7.28115272521973 0.375 5.29006719589233
v 7.28115272521973 0.75 5.29006719589233
v 6.4721360206604 0.75 4.7022819519043
v 6.4721360206604 0.375 4.7022819519043
v 6.4721360206604 0 4.7022819519043
v 6.4721360206604 -0.375 4.7022819519043
v 7.60845232009888 -0.75 2.4721360206604
v 8.55950832366943 -0.75 2.78115296363831
v 8.55950832366943 -0.375 2.78115296363831
v 8.55950832366943 0 2.78115296363831
v 8.55950832366943 0.375 2.78115296363831
v 8.55950832366943 0.75 2.78115296363831
v 7.60845232009888 0.75 2.4721360206604
v 7.60845232009888 0.375 2.4721360206604
v 7.60845232009888 0 2.4721360206604
v 7.60845232009888 -0.375 2.4721360206604
v 0 -0.5 0
v 0 0.5 0
v 10 -0.5 0
v 10 0.5 0
v 9.51056480407715 -0.5 -3.09016990661621
v 9.51056480407715 0.5 -3.09016990661621
v 8.09016990661621 -0.5 -5.87785243988037
v 8.09016990661621 0.5 -5.87785243988037
v 5.87785243988037 -0.5 -8.09016990661621
v 5.87785243988037 0.5 -8.09016990661621
v 3.09016990661621 -0.5 -9.51056480407715
v 3.09016990661621 0.5 -9.51056480407715
v 0 -0.5 -10
v 0 0.5 -10
v -3.09016990661621 -0.5 -9.51056480407715
v -3.09016990661621 0.5 -9.51056480407715
v -5.87785243988037 -0.5 -8.09016990661621
v -5.87785243988037 0.5 -8.09016990661621
v -8.09016990661621 -0.5 -5.87785243988037
v -8.09016990661621 0.5 -5.87785243988037
v -9.51056480407715 -0.5 -3.09016990661621
v -9.51056480407715 0.5 -3.09016990661621
v -10 -0.5 0
v -10 0.5 0
v -9.51056480407715 -0.5 3.09016990661621
v -9.51056480407715 0.5 3.09016990661621
v -8.09016990661621 -0.5 5.87785243988037
v -8.09016990661621 0.5 5.87785243988037
v -5.87785243988037 -0.5 8.09016990661621
v -5.87785243988037 0.5 8.09016990661621
v -3.09016990661621 -0.5 9.51056480407715
v -3.09016990661621 0.5 9.51056480407715
v 0 -0.5 10
v 0 0.5 10
v 3.09016990661621 -0.5 9.51056480407715
v 3.09016990661621 0.5 9.51056480407715
v 5.87785243988037 -0.5 8.09016990661621
v 5.87785243988037 0.5 8.09016990661621
v 8.09016990661621 -0.5 5.87785243988037
v 8.09016990661621 0.5 5.87785243988037
v 9.51056480407715 -0.5 3.09016990661621
v 9.51056480407715 0.5 3.09016990661621
# 446 vertices

vn -0.4222859442234 0 -0.90646266937256
vn -0.38146176934242 0 -0.92438459396362
vn -0.30390226840973 0 -0.95270323753357
vn -0.23783062398434 0 -0.97130662202835
vn -0.17045074701309 0 -0.98536622524261
vn -0.09798837453127 0 -0.99518758058548
vn -0.03808870539069 0 -0.9992743730545
vn 0.01922648213804 0 -0.99981516599655
vn 0.09715878218412 0 -0.99526888132095
vn 0.18759532272816 0 -0.98224639892578
vn 0.27718096971512 0 -0.96081775426865
vn 0.36540430784225 0 -0.93084889650345
vn 0.44062784314156 0 -0.89768987894058
vn 0.49549558758736 0 -0.86861044168472
vn 0.54931634664536 0 -0.83561444282532
vn 0.6176273226738 0 -0.78647094964981
vn 0.68988281488419 0 -0.72392106056213
vn 0.75600856542587 0 -0.65456175804138
vn 0.81434309482574 0 -0.58038377761841
vn 0.85973191261292 0 -0.51074558496475
vn 0.89044415950775 0 -0.45509254932404
vn 0.90242779254913 0 -0.43084111809731
vn 0 0 1
vn 0.9487122297287 0 0.31614091992378
vn 0 0 -1
vn 0.99514490365982 0 -0.09842041134834
vn 0.99715113639832 0 -0.07542922347784
vn 0.99949938058853 0 -0.03163851425052
vn 0.9999275803566 0 0.012036873959
vn 0.99834626913071 0 0.05748630687594
vn 0.99679404497147 0 0.08001039177179
vn 0.9510617852211 0 0.30900084972382
vn 0.8648961186409 0 0.50195091962814
vn 0.84135150909424 0 0.54048836231232
vn 0.78831428289413 0 0.61527281999588
vn 0.72727537155151 0 0.68634575605392
vn 0.66343027353287 0 0.74823808670044
vn 0.60330903530121 0 0.79750746488571
vn 0.53903651237488 0 0.84228241443634
vn 0.45971313118935 0 0.88806748390198
vn 0.37112647294998 0 0.92858231067657
vn 0.28178563714027 0 0.95947736501694
vn 0.19158783555031 0 0.98147547245026
vn 0.10044374316931 0 0.99494272470474
vn 0.00555422157049 0 0.999984562397
vn -0.07933382689953 0 0.99684810638428
vn -0.14294408261776 0 0.98973077535629
vn -0.20819364488125 0 0.97808760404587
vn -0.28189274668694 0 0.95944595336914
vn -0.34729444980621 0 0.9377561211586
vn -0.37592929601669 0 0.92664837837219
vn 0.9367915391922 0 0.34988808631897
vn 0.33176290988922 0 -0.94336277246475
vn 0.29710078239441 0 -0.95484614372253
vn 0.23389028012753 0 -0.97226297855377
vn 0.16895893216133 0 -0.9856231212616
vn 0.08727841824293 0 -0.99618393182755
vn -0.00721873342991 0 -0.99997395277023
vn -0.10411632806063 0 -0.99456512928009
vn -0.19612817466259 0 -0.98057824373245
vn -0.2839153110981 0 -0.95884937047958
vn -0.37065362930298 0 -0.92877119779587
vn -0.4538668692112 0 -0.89106953144073
vn -0.52865368127823 0 -0.84883761405945
vn -0.59901612997055 0 -0.80073696374893
vn -0.66957241296768 0 -0.74274677038193
vn -0.73735982179642 0 -0.67550015449524
vn -0.79856514930725 0 -0.60190844535828
vn -0.85167676210403 0 -0.52406740188599
vn -0.89587450027466 0 -0.44430723786354
vn -0.93211317062378 0 -0.36216711997986
vn -0.94750726222992 0 -0.31973433494568
vn -1 0 0
vn -0.9988374710083 0 -0.04820449650288
vn -0.9996240735054 0 -0.02741831727326
vn -0.99997806549072 0 -0.00662027765065
vn -0.96578681468964 0 0.25933718681335
vn -0.9524484872818 0 0.30469965934753
vn -0.91940015554428 0 0.39332342147827
vn -0.87691241502762 0 0.48065024614334
vn -0.82592099905014 0 0.56378591060638
vn -0.77040374279022 0 0.63755637407303
vn -0.71582925319672 0 0.6982753276825
vn -0.66527956724167 0 0.74659436941147
vn -0.60816496610641 0 0.79381066560745
vn -0.53675317764282 0 0.84373927116394
vn -0.45828571915627 0 0.88880491256714
vn -0.37593340873718 0 0.92664664983749
vn -0.28873911499977 0 0.95740783214569
vn -0.1995216012001 0 0.97989344596863
vn -0.11897771060467 0 0.99289691448212
vn -0.05776119232178 0 0.9983304142952
vn 0.00603221682832 0 0.99998182058334
vn 0.08208934962749 0 0.99662494659424
vn 0.15067285299301 0 0.98858368396759
vn 0.21881718933582 0 0.97576588392258
vn 0.29378691315651 0 0.95587092638016
vn 0.36480781435966 0 0.93108284473419
vn 0.39784997701645 0 0.91745048761368
vn 0.92492663860321 0 -0.38014569878578
vn 0 1 0
vn -0.57735025882721 -0.57735025882721 0.57735025882721
vn -0.54407894611359 -0.59328663349152 0.59328663349152
vn 0 -1 0
vn 0 -1 0
vn -0.60641866922379 -0.60641866922379 0.51430809497833
vn -0.57735025882721 -0.57735025882721 0.57735025882721
vn 1 0 0
vn 0.95105648040771 0 -0.30901703238487
vn 0.95105654001236 0 -0.30901700258255
vn -0.95105654001236 0 0.30901700258255
vn 0.80901700258255 0 -0.58778524398804
vn 0.80901700258255 0 -0.58778524398804
vn -0.80901700258255 0 0.58778530359268
vn 0.58778524398804 0 -0.80901700258255
vn -0.58778524398804 0 0.80901700258255
vn -0.58778530359268 0 0.80901700258255
vn 0.30901700258255 0 -0.95105654001236
vn -0.30901700258255 0 0.95105654001236
vn -0.30901703238487 0 -0.95105648040771
vn -0.30901700258255 0 -0.95105654001236
vn 0.30901700258255 0 0.95105654001236
vn -0.58778524398804 0 -0.80901700258255
vn -0.58778524398804 0 -0.80901700258255
vn 0.58778530359268 0 0.80901700258255
vn -0.80901700258255 0 -0.58778524398804
vn 0.80901700258255 0 0.58778524398804
vn 0.80901700258255 0 0.58778530359268
vn -0.95105654001236 0 -0.30901700258255
vn 0.95105654001236 0 0.30901700258255
vn -0.95105648040771 0 0.30901703238487
vn -0.95105654001236 0 0.30901700258255
vn 0.95105654001236 0 -0.30901700258255
vn -0.80901700258255 0 0.58778524398804
vn -0.80901700258255 0 0.58778524398804
vn 0.80901700258255 0 -0.58778530359268
vn -0.58778524398804 0 0.80901700258255
vn 0.58778524398804 0 -0.80901700258255
vn 0.58778530359268 0 -0.80901700258255
vn -0.30901700258255 0 0.95105654001236
vn 0.30901700258255 0 -0.95105654001236
vn 0.30901703238487 0 0.95105648040771
vn 0.30901700258255 0 0.95105654001236
vn -0.30901700258255 0 -0.95105654001236
vn 0.58778524398804 0 0.80901700258255
vn 0.58778524398804 0 0.80901700258255
vn -0.58778530359268 0 -0.80901700258255
vn 0.80901700258255 0 0.58778524398804
vn -0.80901700258255 0 -0.58778524398804
vn -0.80901700258255 0 -0.58778530359268
vn 0.95105654001236 0 0.30901700258255
vn -0.95105654001236 0 -0.30901700258255
vn 0.95105654001236 0 -0.30901697278023
vn -0.55997467041016 -0.55997467041016 0.61062002182007
vn 0.30901697278023 0 -0.95105654001236
vn -0.30901697278023 0 -0.95105654001236
vn -0.95105654001236 0 -0.30901697278023
vn -0.95105654001236 0 0.30901697278023
vn -0.57735025882721 -0.57735025882721 0.57735025882721
vn -0.30901697278023 0 0.95105654001236
vn 0.30901697278023 0 0.95105654001236
vn 0.95105654001236 0 0.30901697278023
# 162 normals

vt 0 1 0
vt 0.00436422415078 1 0
vt 0.00436422415078 0 0
vt 0 0 0
vt 0.00866005755961 1 0
vt 0.00866005755961 0 0
vt 0.01150379702449 1 0
vt 0.01150379702449 0 0
vt 0.01434336230159 1 0
vt 0.01434336230159 0 0
vt 0.02075263112783 1 0
vt 0.02075263112783 0 0
vt 0.02501299232244 1 0
vt 0.02501299232244 0 0
vt 0.02942800521851 1 0
vt 0.02942800521851 0 0
vt 0.03578180074692 1 0
vt 0.03578180074692 0 0
vt 0.04117860645056 1 0
vt 0.04117860645056 0 0
vt 0.04575808346272 1 0
vt 0.04575808346272 0 0
vt 0.05017054080963 1 0
vt 0.05017054080963 0 0
vt 0.05392705649137 1 0
vt 0.05392705649137 0 0
vt 0.05604228377342 1 0
vt 0.05604228377342 0 0
vt 0.05814161151648 1 0
vt 0.05814161151648 0 0
vt 0.06229332834482 1 0
vt 0.06229332834482 0 0
vt 0.06640166044235 1 0
vt 0.06640166044235 0 0
vt 0.07050432264805 1 0
vt 0.07050432264805 0 0
vt 0.07463912665844 1 0
vt 0.07463912665844 0 0
vt 0.07884307205677 1 0
vt 0.07884307205677 0 0
vt 0.08152192831039 1 0
vt 0.08152192831039 0 0
vt 0.0842496752739 1 0
vt 0.0842496752739 0 0
vt 0.12245489656925 1 0
vt 0.12245489656925 0 0
vt 0.14609920978546 1 0
vt 0.14609920978546 0 0
vt 0.19703948497772 1 0
vt 0.19703948497772 0 0
vt 0.19866570830345 1 0
vt 0.19866570830345 0 0
vt 0.20023429393768 1 0
vt 0.20023429393768 0 0
vt 0.20341920852661 1 0
vt 0.20341920852661 0 0
vt 0.20837244391441 1 0
vt 0.20837244391441 0 0
vt 0.21313017606735 1 0
vt 0.21313017606735 0 0
vt 0.26933062076569 1 0
vt 0.26933062076569 0 0
vt 0.2926253080368 1 0
vt 0.2926253080368 0 0
vt 0.34910261631012 1 0
vt 0.34910261631012 0 0
vt 0.35376000404358 1 0
vt 0.35376000404358 0 0
vt 0.35832899808884 1 0
vt 0.35832899808884 0 0
vt 0.36284810304642 1 0
vt 0.36284810304642 0 0
vt 0.36735719442368 1 0
vt 0.36735719442368 0 0
vt 0.37088358402252 1 0
vt 0.37088358402252 0 0
vt 0.37444669008255 1 0
vt 0.37444669008255 0 0
vt 0.37854462862015 1 0
vt 0.37854462862015 0 0
vt 0.38266664743423 1 0
vt 0.38266664743423 0 0
vt 0.38685190677643 1 0
vt 0.38685190677643 0 0
vt 0.39113807678223 1 0
vt 0.39113807678223 0 0
vt 0.39612364768982 1 0
vt 0.39612364768982 0 0
vt 0.40132623910904 1 0
vt 0.40132623910904 0 0
vt 0.40727204084396 1 0
vt 0.40727204084396 0 0
vt 0.41050511598587 1 0
vt 0.41050511598587 0 0
vt 0.41389608383179 1 0
vt 0.41389608383179 0 0
vt 0.4190776348114 1 0
vt 0.4190776348114 0 0
vt 0.42230641841888 1 0
vt 0.42230641841888 0 0
vt 0.42549532651901 1 0
vt 0.42549532651901 0 0
vt 0.46743160486221 1 0
vt 0.46743160486221 0 0
vt 0.47657769918442 1 0
vt 0.47657769918442 0 0
vt 0.48231047391891 1 0
vt 0.48231047391891 0 0
vt 0.48799687623978 1 0
vt 0.48799687623978 0 0
vt 0.49810403585434 1 0
vt 0.49810403585434 0 0
vt 0.50823533535004 1 0
vt 0.50823533535004 0 0
vt 0.5205146074295 1 0
vt 0.5205146074295 0 0
vt 0.53094148635864 1 0
vt 0.53094148635864 0 0
vt 0.5397629737854 1 0
vt 0.5397629737854 0 0
vt 0.54837250709534 1 0
vt 0.54837250709534 0 0
vt 0.55684292316437 1 0
vt 0.55684292316437 0 0
vt 0.56405127048492 1 0
vt 0.56405127048492 0 0
vt 0.5712628364563 1 0
vt 0.5712628364563 0 0
vt 0.57962894439697 1 0
vt 0.57962894439697 0 0
vt 0.5879088640213 1 0
vt 0.5879088640213 0 0
vt 0.59617853164673 1 0
vt 0.59617853164673 0 0
vt 0.60451412200928 1 0
vt 0.60451412200928 0 0
vt 0.61298978328705 1 0
vt 0.61298978328705 0 0
vt 0.62167656421661 1 0
vt 0.62167656421661 0 0
vt 0.63194561004639 1 0
vt 0.63194561004639 0 0
vt 0.65686213970184 1 0
vt 0.65686213970184 0 0
vt 0.67901682853699 1 0
vt 0.67901682853699 0 0
vt 0.69978046417236 1 0
vt 0.69978046417236 0 0
vt 0.70480573177338 1 0
vt 0.70480573177338 0 0
vt 0.71003305912018 1 0
vt 0.71003305912018 0 0
vt 0.71584868431091 1 0
vt 0.71584868431091 0 0
vt 0.73633551597595 1 0
vt 0.73633551597595 0 0
vt 0.75876712799072 1 0
vt 0.75876712799072 0 0
vt 0.78229939937592 1 0
vt 0.78229939937592 0 0
vt 0.79282367229462 1 0
vt 0.79282367229462 0 0
vt 0.80167090892792 1 0
vt 0.80167090892792 0 0
vt 0.81025731563568 1 0
vt 0.81025731563568 0 0
vt 0.81866443157196 1 0
vt 0.81866443157196 0 0
vt 0.8257942199707 1 0
vt 0.8257942199707 0 0
vt 0.8329119682312 1 0
vt 0.8329119682312 0 0
vt 0.83767938613892 1 0
vt 0.83767938613892 0 0
vt 0.84369134902954 1 0
vt 0.84369134902954 0 0
vt 0.85097050666809 1 0
vt 0.85097050666809 0 0
vt 0.85832917690277 1 0
vt 0.85832917690277 0 0
vt 0.86582779884338 1 0
vt 0.86582779884338 0 0
vt 0.87482821941376 1 0
vt 0.87482821941376 0 0
vt 0.88418018817902 1 0
vt 0.88418018817902 0 0
vt 0.89539301395416 1 0
vt 0.89539301395416 0 0
vt 0.90272831916809 1 0
vt 0.90272831916809 0 0
vt 0.91033923625946 1 0
vt 0.91033923625946 0 0
vt 0.920281291008 1 0
vt 0.920281291008 0 0
vt 0.92689943313599 1 0
vt 0.92689943313599 0 0
vt 0.9340124130249 1 0
vt 0.9340124130249 0 0
vt 0.94303047657013 1 0
vt 0.94303047657013 0 0
vt 0.95015668869019 1 0
vt 0.95015668869019 0 0
vt 0.95780575275421 1 0
vt 0.95780575275421 0 0
vt 1 1 0
vt 1 0 0
vt 0.1253700107336 0.65884929895401 0
vt 0.35086190700531 0.5473752617836 0
vt 0.10447501391172 0.5473752617836 0
vt 0 0.65884929895401 0
vt 0.10308201611042 0.46655666828156 0
vt 0.34946891665459 0.46655666828156 0
vt 0.1184050142765 0.35368919372559 0
vt 0 0.35368919372559 0
vt 0.60578095912933 0.46655666828156 0
vt 0.37593591213226 0.35368919372559 0
vt 0.14189079403877 0.70780730247498 0
vt 0.38568693399429 0.65884929895401 0
vt 0.63364094495773 0.5473752617836 0
vt 0.68695193529129 0.7759530544281 0
vt 0.71979969739914 0.98524582386017 0
vt 0.74763685464859 0.97768718004227 0
vt 0.702352643013 0.77078151702881 0
vt 0.66167509555817 0.78234171867371 0
vt 0.64486438035965 0.78526020050049 0
vt 0.6917986869812 0.99112677574158 0
vt 0.79104995727539 0.96241962909698 0
vt 0.71722096204758 0.76474964618683 0
vt 0.59881597757339 0.78843808174133 0
vt 0.57267820835114 0.78699994087219 0
vt 0.59045797586441 1 0
vt 0.64138948917389 0.99784690141678 0
vt 0.82169598340988 0.05150008201599 0
vt 0.78638619184494 0.03618824481964 0
vt 0.72108393907547 0.23859393596649 0
vt 0.7409890294075 0.24786698818207 0
vt 0.6287043094635 0.78712642192841 0
vt 0.75255459547043 0.02430891990662 0
vt 0.70075571537018 0.23124742507935 0
vt 0.7086888551712 0.0127010345459 0
vt 0.68696850538254 0.22742009162903 0
vt 0.54786056280136 0.78334403038025 0
vt 0.47691294550896 0.9885596036911 0
vt 0.52877283096313 0.99649953842163 0
vt 0.67349380254745 0.00620532035828 0
vt 0.67299318313599 0.22444903850555 0
vt 0.52690869569778 0.77823233604431 0
vt 0.4338296353817 0.97788429260254 0
vt 0.64043307304382 0.00221931934357 0
vt 0.6410294175148 0.22016954421997 0
vt 0.59045797586441 0 0
vt 0.6196357011795 0.21881568431854 0
vt 0.55218279361725 0.00123727321625 0
vt 0.59742295742035 0.21852695941925 0
vt 0.50699996948242 0.77136832475662 0
vt 0.39288747310638 0.96372961997986 0
vt 0.51540225744247 0.00430715084076 0
vt 0.56549537181854 0.22017121315002 0
vt 0.45966222882271 0.01303088665009 0
vt 0.53861856460571 0.22404563426971 0
vt 0.48813429474831 0.76275193691254 0
vt 0.35408642888069 0.94609570503235 0
vt 0.41402849555016 0.02451276779175 0
vt 0.51620572805405 0.22939419746399 0
vt 0.47031167149544 0.75238311290741 0
vt 0.32253256440163 0.92821156978607 0
vt 0.45563399791718 0.74208801984787 0
vt 0.2925518155098 0.9077712893486 0
vt 0.37132424116135 0.03958654403687 0
vt 0.47793027758598 0.24425399303436 0
vt 0.49518370628357 0.23653519153595 0
vt 0.33705228567123 0.05536580085754 0
vt 0.4685492515564 0.24928092956543 0
vt 0.4418777525425 0.73088139295578 0
vt 0.25998347997665 0.88110160827637 0
vt 0.30493256449699 0.0737841129303 0
vt 0.45951592922211 0.25475597381592 0
vt 0.42554518580437 0.7151335477829 0
vt 0.23039843142033 0.85176885128021 0
vt 0.27496516704559 0.09484136104584 0
vt 0.4424923658371 0.26686322689056 0
vt 0.4107358455658 0.69787889719009 0
vt 0.20379664003849 0.81977307796478 0
vt 0.3974497616291 0.67911750078201 0
vt 0.18017809092999 0.78511416912079 0
vt 0.25173112750053 0.11421239376068 0
vt 0.42685955762863 0.28038835525513 0
vt 0.15954281389713 0.74779224395752 0
vt 0.23435637354851 0.13075149059296 0
vt 0.41261750459671 0.2953314781189 0
vt 0.21031506359577 0.15729701519012 0
vt 0.18869870901108 0.18592691421509 0
vt 0.39976626634598 0.31169247627258 0
vt 0.34807592630386 0.49860537052155 0
vt 0.34825003147125 0.48258101940155 0
vt 0.10308201611042 0.49581861495972 0
vt 0.10325613617897 0.52211946249008 0
vt 0.34894654154778 0.52351289987564 0
vt 0.34866359829903 0.4746994972229 0
vt 0.16654452681541 0.22196304798126 0
vt 0.38830575346947 0.32947146892548 0
vt 0.14769099652767 0.26083612442017 0
vt 0.38184919953346 0.34130334854126 0
vt 0.13213811814785 0.30254638195038 0
vt 0.66985893249512 0.65884929895401 0
vt 0 0.5473752617836 0
vt 0 0.46655666828156 0
vt 0.5681699514389 0.35368919372559 0
vt 0.05555555596948 0.5 0
vt 0 0.5 0
vt 0.02447174116969 0.6545085310936 0
vt 0.0773082152009 0.63734090328217 0
vt 0 0.25 0
vt 0.04999999701977 0.25 0
vt 0.05000000074506 0 0
vt 0.04999999701977 0.5 0
vt 0 0.75 0
vt 0.04999999701977 0.75 0
vt 0.05000000074506 1 0
vt 1 0.5 0
vt 0.94444441795349 0.5 0
vt 0.92269176244736 0.63734090328217 0
vt 0.97552824020386 0.6545085310936 0
vt 0.09549150615931 0.79389262199402 0
vt 0.14043688774109 0.76123785972595 0
vt 0.09999999403954 0.25 0
vt 0.10000000149012 0 0
vt 0.09999999403954 0.5 0
vt 0.09999999403954 0.75 0
vt 0.10000000149012 1 0
vt 0.85956311225891 0.76123785972595 0
vt 0.90450847148895 0.79389262199402 0
vt 0.20610737800598 0.90450847148895 0
vt 0.23876211047173 0.85956311225891 0
vt 0.15000000596046 0.25 0
vt 0.15000000596046 0 0
vt 0.15000000596046 0.5 0
vt 0.15000000596046 0.75 0
vt 0.15000000596046 1 0
vt 0.7612379193306 0.85956311225891 0
vt 0.79389262199402 0.90450847148895 0
vt 0.34549149870872 0.97552824020386 0
vt 0.36265912652016 0.922691822052 0
vt 0.19999998807907 0.25 0
vt 0.20000000298023 0 0
vt 0.19999998807907 0.5 0
vt 0.19999998807907 0.75 0
vt 0.20000000298023 1 0
vt 0.63734090328217 0.922691822052 0
vt 0.65450847148895 0.97552824020386 0
vt 0.5 1 0
vt 0.5 0.94444441795349 0
vt 0.25 0.25 0
vt 0.25 0 0
vt 0.25 0.5 0
vt 0.25 0.75 0
vt 0.25 1 0
vt 0.30000001192093 0.25 0
vt 0.30000001192093 0 0
vt 0.30000001192093 0.5 0
vt 0.30000001192093 0.75 0
vt 0.30000001192093 1 0
vt 0.34999996423721 0.25 0
vt 0.34999999403954 0 0
vt 0.34999996423721 0.5 0
vt 0.34999996423721 0.75 0
vt 0.34999999403954 1 0
vt 0.39999997615814 0.25 0
vt 0.40000000596046 0 0
vt 0.39999997615814 0.5 0
vt 0.39999997615814 0.75 0
vt 0.40000000596046 1 0
vt 0.44999998807907 0.25 0
vt 0.44999998807907 0 0
vt 0.44999998807907 0.5 0
vt 0.44999998807907 0.75 0
vt 0.44999998807907 1 0
vt 0.5 0.25 0
vt 0.5 0 0
vt 0.5 0.5 0
vt 0.5 0.75 0
vt 0.97552824020386 0.34549152851105 0
vt 0.92269176244736 0.36265909671783 0
vt 0.54999995231628 0.25 0
vt 0.55000001192093 0 0
vt 0.54999995231628 0.5 0
vt 0.54999995231628 0.75 0
vt 0.55000001192093 1 0
vt 0.0773082152009 0.36265909671783 0
vt 0.02447174116969 0.34549152851105 0
vt 0.90450847148895 0.20610737800598 0
vt 0.85956311225891 0.23876214027405 0
vt 0.60000002384186 0.25 0
vt 0.60000002384186 0 0
vt 0.60000002384186 0.5 0
vt 0.60000002384186 0.75 0
vt 0.60000002384186 1 0
vt 0.14043688774109 0.23876214027405 0
vt 0.09549150615931 0.20610737800598 0
vt 0.79389262199402 0.09549152851105 0
vt 0.7612379193306 0.14043688774109 0
vt 0.64999997615814 0.25 0
vt 0.64999997615814 0 0
vt 0.64999997615814 0.5 0
vt 0.64999997615814 0.75 0
vt 0.64999997615814 1 0
vt 0.23876211047173 0.14043688774109 0
vt 0.20610737800598 0.09549152851105 0
vt 0.65450847148895 0.02447175979614 0
vt 0.63734090328217 0.07730829715729 0
vt 0.69999992847443 0.25 0
vt 0.69999998807907 0 0
vt 0.69999992847443 0.5 0
vt 0.69999992847443 0.75 0
vt 0.69999998807907 1 0
vt 0.36265912652016 0.07730829715729 0
vt 0.34549149870872 0.02447175979614 0
vt 0.5 0.05555558204651 0
vt 0.75 0.25 0
vt 0.75 0 0
vt 0.75 0.5 0
vt 0.75 0.75 0
vt 0.75 1 0
vt 0.79999995231628 0.25 0
vt 0.80000001192093 0 0
vt 0.79999995231628 0.5 0
vt 0.79999995231628 0.75 0
vt 0.80000001192093 1 0
vt 0.85000002384186 0.25 0
vt 0.85000002384186 0 0
vt 0.85000002384186 0.5 0
vt 0.85000002384186 0.75 0
vt 0.85000002384186 1 0
vt 0.89999997615814 0.25 0
vt 0.89999997615814 0 0
vt 0.89999997615814 0.5 0
vt 0.89999997615814 0.75 0
vt 0.89999997615814 1 0
vt 0.94999992847443 0.25 0
vt 0.94999998807907 0 0
vt 0.94999992847443 0.5 0
vt 0.94999992847443 0.75 0
vt 0.94999998807907 1 0
vt 1 0.25 0
vt 1 0.75 0
# 445 texture coordinates

o Null
usemtl Mat.1
f 103/4/1 104/3/2 2/2/2 1/1/1
f 104/3/2 105/6/3 3/5/3 2/2/2
f 105/6/3 106/8/4 4/7/4 3/5/3
f 106/8/4 107/10/5 5/9/5 4/7/4
f 107/10/5 108/12/6 6/11/6 5/9/5
f 108/12/6 109/14/7 7/13/7 6/11/6
f 109/14/7 110/16/8 8/15/8 7/13/7
f 110/16/8 111/18/9 9/17/9 8/15/8
f 111/18/9 112/20/10 10/19/10 9/17/9
f 112/20/10 113/22/11 11/21/11 10/19/10
f 113/22/11 114/24/12 12/23/12 11/21/11
f 114/24/12 115/26/13 13/25/13 12/23/12
f 115/26/13 116/28/14 14/27/14 13/25/13
f 116/28/14 117/30/15 15/29/15 14/27/14
f 117/30/15 118/32/16 16/31/16 15/29/15
f 118/32/16 119/34/17 17/33/17 16/31/16
f 119/34/17 120/36/18 18/35/18 17/33/17
f 120/36/18 121/38/19 19/37/19 18/35/18
f 121/38/19 122/40/20 20/39/20 19/37/19
f 122/40/20 123/42/21 21/41/21 20/39/20
f 123/42/21 124/44/22 22/43/22 21/41/21
f 124/44/23 125/46/23 23/45/23 22/43/23
f 125/46/24 126/48/24 24/47/24 23/45/24
f 126/48/25 127/50/25 25/49/25 24/47/25
f 127/50/26 128/52/27 26/51/27 25/49/26
f 128/52/27 129/54/28 27/53/28 26/51/27
f 129/54/28 130/56/29 28/55/29 27/53/28
f 130/56/29 131/58/30 29/57/30 28/55/29
f 131/58/30 132/60/31 30/59/31 29/57/30
f 132/60/23 133/62/23 31/61/23 30/59/23
f 133/62/32 134/64/32 32/63/32 31/61/32
f 134/64/25 135/66/25 33/65/25 32/63/25
f 135/66/33 136/68/34 34/67/34 33/65/33
f 136/68/34 137/70/35 35/69/35 34/67/34
f 137/70/35 138/72/36 36/71/36 35/69/35
f 138/72/36 139/74/37 37/73/37 36/71/36
f 139/74/37 140/76/38 38/75/38 37/73/37
f 140/76/38 141/78/39 39/77/39 38/75/38
f 141/78/39 142/80/40 40/79/40 39/77/39
f 142/80/40 143/82/41 41/81/41 40/79/40
f 143/82/41 144/84/42 42/83/42 41/81/41
f 144/84/42 145/86/43 43/85/43 42/83/42
f 145/86/43 146/88/44 44/87/44 43/85/43
f 146/88/44 147/90/45 45/89/45 44/87/44
f 147/90/45 148/92/46 46/91/46 45/89/45
f 148/92/46 149/94/47 47/93/47 46/91/46
f 149/94/47 150/96/48 48/95/48 47/93/47
f 150/96/48 151/98/49 49/97/49 48/95/48
f 151/98/49 152/100/50 50/99/50 49/97/49
f 152/100/50 153/102/51 51/101/51 50/99/50
f 153/102/52 154/104/52 52/103/52 51/101/52
f 154/104/53 155/106/54 53/105/54 52/103/53
f 155/106/54 156/108/55 54/107/55 53/105/54
f 156/108/55 157/110/56 55/109/56 54/107/55
f 157/110/56 158/112/57 56/111/57 55/109/56
f 158/112/57 159/114/58 57/113/58 56/111/57
f 159/114/58 160/116/59 58/115/59 57/113/58
f 160/116/59 161/118/60 59/117/60 58/115/59
f 161/118/60 162/120/61 60/119/61 59/117/60
f 162/120/61 163/122/62 61/121/62 60/119/61
f 163/122/62 164/124/63 62/123/63 61/121/62
f 164/124/63 165/126/64 63/125/64 62/123/63
f 165/126/64 166/128/65 64/127/65 63/125/64
f 166/128/65 167/130/66 65/129/66 64/127/65
f 167/130/66 168/132/67 66/131/67 65/129/66
f 168/132/67 169/134/68 67/133/68 66/131/67
f 169/134/68 170/136/69 68/135/69 67/133/68
f 170/136/69 171/138/70 69/137/70 68/135/69
f 171/138/70 172/140/71 70/139/71 69/137/70
f 172/140/71 173/142/72 71/141/72 70/139/71
f 173/142/25 174/144/25 72/143/25 71/141/25
f 174/144/73 175/146/73 73/145/73 72/143/73
f 175/146/23 176/148/23 74/147/23 73/145/23
f 176/148/74 177/150/75 75/149/75 74/147/74
f 177/150/75 178/152/76 76/151/76 75/149/75
f 178/152/73 179/154/73 77/153/73 76/151/73
f 179/154/25 180/156/25 78/155/25 77/153/25
f 180/156/73 181/158/73 79/157/73 78/155/73
f 181/158/23 182/160/23 80/159/23 79/157/23
f 182/160/77 183/162/78 81/161/78 80/159/77
f 183/162/78 184/164/79 82/163/79 81/161/78
f 184/164/79 185/166/80 83/165/80 82/163/79
f 185/166/80 186/168/81 84/167/81 83/165/80
f 186/168/81 187/170/82 85/169/82 84/167/81
f 187/170/82 188/172/83 86/171/83 85/169/82
f 188/172/83 189/174/84 87/173/84 86/171/83
f 189/174/84 190/176/85 88/175/85 87/173/84
f 190/176/85 191/178/86 89/177/86 88/175/85
f 191/178/86 192/180/87 90/179/87 89/177/86
f 192/180/87 193/182/88 91/181/88 90/179/87
f 193/182/88 194/184/89 92/183/89 91/181/88
f 194/184/89 195/186/90 93/185/90 92/183/89
f 195/186/90 196/188/91 94/187/91 93/185/90
f 196/188/91 197/190/92 95/189/92 94/187/91
f 197/190/92 198/192/93 96/191/93 95/189/92
f 198/192/93 199/194/94 97/193/94 96/191/93
f 199/194/94 200/196/95 98/195/95 97/193/94
f 200/196/95 201/198/96 99/197/96 98/195/95
f 201/198/96 202/200/97 100/199/97 99/197/96
f 202/200/97 203/202/98 101/201/98 100/199/97
f 203/202/98 204/204/99 102/203/99 101/201/98
f 204/204/100 103/206/100 1/205/100 102/203/100
f 1/236/101 2/235/101 3/239/101 4/241/101 5/246/101 6/250/101 7/252/101 8/254/101 9/258/101 10/260/101 11/264/101 12/271/101 13/270/101 14/273/101 15/277/101 16/281/101 17/287/101 18/290/101 19/293/101 20/301/101 21/303/101 22/216/101 23/303/103 24/215/101 25/212/101 26/299/101 27/295/101 28/294/101 29/298/101 30/208/101 31/219/101 32/305/101 33/218/101 34/284/101 35/282/101 36/278/101 37/274/101 38/267/101 39/265/101 40/261/101 41/255/101 42/247/101 43/242/101 44/230/101 45/229/101 46/237/101 47/225/101 48/224/101 49/220/101 50/223/101 51/228/101 52/227/101 53/222/101 54/221/101 55/226/101 56/232/101 57/231/101 58/244/101 59/243/101 60/248/101 61/256/101 62/262/101 63/266/101 64/268/101 65/275/101 66/279/101 67/283/101 68/285/101 69/288/101 70/217/101 71/207/101 72/210/101 73/306/101 74/209/101 75/297/101 76/296/101 77/211/101 78/307/101 79/214/101 80/213/101 81/304/101 82/302/101 83/300/101 84/292/101 85/291/101 86/289/101 87/286/101 88/280/101 89/276/101 90/272/101 91/269/101 92/263/101 93/259/101 94/257/101 95/253/101 96/251/101 97/249/101 98/245/101 99/240/101 100/238/101 101/234/101 102/233/101
f 204/233/104 203/234/104 202/238/104 201/240/104 200/245/104 199/249/104 198/251/104 197/253/104 196/257/104 195/259/104 194/263/104 193/269/104 192/272/104 191/276/104 190/280/104 189/286/104 188/289/104 187/291/104 186/292/104 185/300/104 184/302/104 183/304/104 182/213/104 181/214/104 180/307/105 179/211/104 178/296/104 177/297/104 176/209/104 175/306/104 174/210/104 173/207/104 172/217/104 171/288/104 170/285/104 169/283/104 168/279/104 167/275/104 166/268/104 165/266/104 164/262/104 163/256/104 162/248/104 161/243/104 160/244/104 159/231/104 158/232/104 157/226/104 156/221/104 155/222/104 154/227/104 153/228/104 152/223/104 151/220/104 150/224/104 149/225/104 148/237/104 147/229/104 146/230/104 145/242/104 144/247/104 143/255/104 142/261/104 141/265/104 140/267/104 139/274/104 138/278/104 137/282/104 136/284/104 135/218/104 134/305/104 133/219/104 132/208/104 131/298/104 130/294/104 129/295/104 128/299/104 127/212/104 126/215/104 125/303/107 124/216/104 123/303/104 122/301/104 121/293/104 120/290/104 119/287/104 118/281/104 117/277/104 116/273/104 115/270/104 114/271/104 113/264/104 112/260/104 111/258/104 110/254/104 109/252/104 108/250/104 107/246/104 106/241/104 105/239/104 104/235/104 103/236/104
f 215/312/104 216/311/104 206/310/104 205/309/104
f 216/315/110 217/314/109 207/313/108 206/4/108
f 217/314/109 218/316/109 208/310/108 207/313/108
f 218/316/109 219/318/109 209/317/108 208/310/108
f 219/318/109 220/319/110 210/1/108 209/317/108
f 220/323/101 221/322/101 211/321/101 210/320/101
f 221/315/111 222/314/111 212/313/73 211/4/73
f 222/314/111 223/316/111 213/310/73 212/313/73
f 223/316/111 224/318/111 214/317/73 213/310/73
f 224/318/111 215/319/111 205/1/73 214/317/73
f 225/325/104 226/324/104 216/311/104 215/312/104
f 226/327/113 227/326/112 217/314/109 216/315/110
f 227/326/112 228/328/112 218/316/109 217/314/109
f 228/328/112 229/329/112 219/318/109 218/316/109
f 229/329/112 230/330/113 220/319/110 219/318/109
f 230/332/101 231/331/101 221/322/101 220/323/101
f 231/327/114 232/326/114 222/314/111 221/315/111
f 232/326/114 233/328/114 223/316/111 222/314/111
f 233/328/114 234/329/114 224/318/111 223/316/111
f 234/329/114 225/330/114 215/319/111 224/318/111
f 235/334/104 236/333/104 226/324/104 225/325/104
f 236/336/115 237/335/115 227/326/112 226/327/113
f 237/335/115 238/337/115 228/328/112 227/326/112
f 238/337/115 239/338/115 229/329/112 228/328/112
f 239/338/115 240/339/115 230/330/113 229/329/112
f 240/341/101 241/340/101 231/331/101 230/332/101
f 241/336/117 242/335/116 232/326/114 231/327/114
f 242/335/116 243/337/116 233/328/114 232/326/114
f 243/337/116 244/338/116 234/329/114 233/328/114
f 244/338/116 235/339/117 225/330/114 234/329/114
f 245/343/104 246/342/104 236/333/104 235/334/104
f 246/345/118 247/344/118 237/335/115 236/336/115
f 247/344/118 248/346/118 238/337/115 237/335/115
f 248/346/118 249/347/118 239/338/115 238/337/115
f 249/347/118 250/348/118 240/339/115 239/338/115
f 250/350/101 251/349/101 241/340/101 240/341/101
f 251/345/119 252/344/119 242/335/116 241/336/117
f 252/344/119 253/346/119 243/337/116 242/335/116
f 253/346/119 254/347/119 244/338/116 243/337/116
f 254/347/119 245/348/119 235/339/117 244/338/116
f 255/352/104 256/351/104 246/342/104 245/343/104
f 256/354/25 257/353/25 247/344/118 246/345/118
f 257/353/25 258/355/25 248/346/118 247/344/118
f 258/355/25 259/356/25 249/347/118 248/346/118
f 259/356/25 260/357/25 250/348/118 249/347/118
f 260/351/101 261/352/101 251/349/101 250/350/101
f 261/354/23 262/353/23 252/344/119 251/345/119
f 262/353/23 263/355/23 253/346/119 252/344/119
f 263/355/23 264/356/23 254/347/119 253/346/119
f 264/356/23 255/357/23 245/348/119 254/347/119
f 265/349/104 266/350/104 256/351/104 255/352/104
f 266/359/121 267/358/120 257/353/25 256/354/25
f 267/358/120 268/360/120 258/355/25 257/353/25
f 268/360/120 269/361/120 259/356/25 258/355/25
f 269/361/120 270/362/121 260/357/25 259/356/25
f 270/342/101 271/343/101 261/352/101 260/351/101
f 271/359/122 272/358/122 262/353/23 261/354/23
f 272/358/122 273/360/122 263/355/23 262/353/23
f 273/360/122 274/361/122 264/356/23 263/355/23
f 274/361/122 265/362/122 255/357/23 264/356/23
f 275/340/104 276/341/104 266/350/104 265/349/104
f 276/364/124 277/363/123 267/358/120 266/359/121
f 277/363/123 278/365/123 268/360/120 267/358/120
f 278/365/123 279/366/123 269/361/120 268/360/120
f 279/366/123 280/367/124 270/362/121 269/361/120
f 280/333/101 281/334/101 271/343/101 270/342/101
f 281/364/125 282/363/125 272/358/122 271/359/122
f 282/363/125 283/365/125 273/360/122 272/358/122
f 283/365/125 284/366/125 274/361/122 273/360/122
f 284/366/125 275/367/125 265/362/122 274/361/122
f 285/331/104 286/332/104 276/341/104 275/340/104
f 286/369/126 287/368/126 277/363/123 276/364/124
f 287/368/126 288/370/126 278/365/123 277/363/123
f 288/370/126 289/371/126 279/366/123 278/365/123
f 289/371/126 290/372/126 280/367/124 279/366/123
f 290/324/101 291/325/101 281/334/101 280/333/101
f 291/369/128 292/368/127 282/363/125 281/364/125
f 292/368/127 293/370/127 283/365/125 282/363/125
f 293/370/127 294/371/127 284/366/125 283/365/125
f 294/371/127 285/372/128 275/367/125 284/366/125
f 295/322/104 296/323/104 286/332/104 285/331/104
f 296/374/129 297/373/129 287/368/126 286/369/126
f 297/373/129 298/375/129 288/370/126 287/368/126
f 298/375/129 299/376/129 289/371/126 288/370/126
f 299/376/129 300/377/129 290/372/126 289/371/126
f 300/311/101 301/312/101 291/325/101 290/324/101
f 301/374/130 302/373/130 292/368/127 291/369/128
f 302/373/130 303/375/130 293/370/127 292/368/127
f 303/375/130 304/376/130 294/371/127 293/370/127
f 304/376/130 295/377/130 285/372/128 294/371/127
f 305/321/104 306/320/104 296/323/104 295/322/104
f 306/379/73 307/378/73 297/373/129 296/374/129
f 307/378/73 308/380/73 298/375/129 297/373/129
f 308/380/73 309/381/73 299/376/129 298/375/129
f 309/381/73 310/351/73 300/377/129 299/376/129
f 310/310/101 311/309/101 301/312/101 300/311/101
f 311/379/108 312/378/108 302/373/130 301/374/130
f 312/378/108 313/380/108 303/375/130 302/373/130
f 313/380/108 314/381/108 304/376/130 303/375/130
f 314/381/108 305/351/108 295/377/130 304/376/130
f 315/383/104 316/382/104 306/320/104 305/321/104
f 316/385/132 317/384/131 307/378/73 306/379/73
f 317/384/131 318/386/131 308/380/73 307/378/73
f 318/386/131 319/387/131 309/381/73 308/380/73
f 319/387/131 320/388/132 310/351/73 309/381/73
f 320/390/101 321/389/101 311/309/101 310/310/101
f 321/385/133 322/384/133 312/378/108 311/379/108
f 322/384/133 323/386/133 313/380/108 312/378/108
f 323/386/133 324/387/133 314/381/108 313/380/108
f 324/387/133 315/388/133 305/351/108 314/381/108
f 325/392/104 326/391/104 316/382/104 315/383/104
f 326/394/135 327/393/134 317/384/131 316/385/132
f 327/393/134 328/395/134 318/386/131 317/384/131
f 328/395/134 329/396/134 319/387/131 318/386/131
f 329/396/134 330/397/135 320/388/132 319/387/131
f 330/399/101 331/398/101 321/389/101 320/390/101
f 331/394/136 332/393/136 322/384/133 321/385/133
f 332/393/136 333/395/136 323/386/133 322/384/133
f 333/395/136 334/396/136 324/387/133 323/386/133
f 334/396/136 325/397/136 315/388/133 324/387/133
f 335/401/104 336/400/104 326/391/104 325/392/104
f 336/403/137 337/402/137 327/393/134 326/394/135
f 337/402/137 338/404/137 328/395/134 327/393/134
f 338/404/137 339/405/137 329/396/134 328/395/134
f 339/405/137 340/406/137 330/397/135 329/396/134
f 340/408/101 341/407/101 331/398/101 330/399/101
f 341/403/139 342/402/138 332/393/136 331/394/136
f 342/402/138 343/404/138 333/395/136 332/393/136
f 343/404/138 344/405/138 334/396/136 333/395/136
f 344/405/138 335/406/139 325/397/136 334/396/136
f 345/410/104 346/409/104 336/400/104 335/401/104
f 346/412/140 347/411/140 337/402/137 336/403/137
f 347/411/140 348/413/140 338/404/137 337/402/137
f 348/413/140 349/414/140 339/405/137 338/404/137
f 349/414/140 350/415/140 340/406/137 339/405/137
f 350/417/101 351/416/101 341/407/101 340/408/101
f 351/412/141 352/411/141 342/402/138 341/403/139
f 352/411/141 353/413/141 343/404/138 342/402/138
f 353/413/141 354/414/141 344/405/138 343/404/138
f 354/414/141 345/415/141 335/406/139 344/405/138
f 355/418/104 356/379/104 346/409/104 345/410/104
f 356/420/23 357/419/23 347/411/140 346/412/140
f 357/419/23 358/421/23 348/413/140 347/411/140
f 358/421/23 359/422/23 349/414/140 348/413/140
f 359/422/23 360/423/23 350/415/140 349/414/140
f 360/379/101 361/418/101 351/416/101 350/417/101
f 361/420/25 362/419/25 352/411/141 351/412/141
f 362/419/25 363/421/25 353/413/141 352/411/141
f 363/421/25 364/422/25 354/414/141 353/413/141
f 364/422/25 355/423/25 345/415/141 354/414/141
f 365/416/104 366/417/104 356/379/104 355/418/104
f 366/425/143 367/424/142 357/419/23 356/420/23
f 367/424/142 368/426/142 358/421/23 357/419/23
f 368/426/142 369/427/142 359/422/23 358/421/23
f 369/427/142 370/428/143 360/423/23 359/422/23
f 370/409/101 371/410/101 361/418/101 360/379/101
f 371/425/144 372/424/144 362/419/25 361/420/25
f 372/424/144 373/426/144 363/421/25 362/419/25
f 373/426/144 374/427/144 364/422/25 363/421/25
f 374/427/144 365/428/144 355/423/25 364/422/25
f 375/407/104 376/408/104 366/417/104 365/416/104
f 376/430/146 377/429/145 367/424/142 366/425/143
f 377/429/145 378/431/145 368/426/142 367/424/142
f 378/431/145 379/432/145 369/427/142 368/426/142
f 379/432/145 380/433/146 370/428/143 369/427/142
f 380/400/101 381/401/101 371/410/101 370/409/101
f 381/430/147 382/429/147 372/424/144 371/425/144
f 382/429/147 383/431/147 373/426/144 372/424/144
f 383/431/147 384/432/147 374/427/144 373/426/144
f 384/432/147 375/433/147 365/428/144 374/427/144
f 385/398/104 386/399/104 376/408/104 375/407/104
f 386/435/148 387/434/148 377/429/145 376/430/146
f 387/434/148 388/436/148 378/431/145 377/429/145
f 388/436/148 389/437/148 379/432/145 378/431/145
f 389/437/148 390/438/148 380/433/146 379/432/145
f 390/391/101 391/392/101 381/401/101 380/400/101
f 391/435/150 392/434/149 382/429/147 381/430/147
f 392/434/149 393/436/149 383/431/147 382/429/147
f 393/436/149 394/437/149 384/432/147 383/431/147
f 394/437/149 385/438/150 375/433/147 384/432/147
f 395/389/104 396/390/104 386/399/104 385/398/104
f 396/440/151 397/439/151 387/434/148 386/435/148
f 397/439/151 398/441/151 388/436/148 387/434/148
f 398/441/151 399/442/151 389/437/148 388/436/148
f 399/442/151 400/443/151 390/438/148 389/437/148
f 400/382/101 401/383/101 391/392/101 390/391/101
f 401/440/152 402/439/152 392/434/149 391/435/150
f 402/439/152 403/441/152 393/436/149 392/434/149
f 403/441/152 404/442/152 394/437/149 393/436/149
f 404/442/152 395/443/152 385/438/150 394/437/149
f 205/309/104 206/310/104 396/390/104 395/389/104
f 206/206/108 207/444/108 397/439/151 396/440/151
f 207/444/108 208/320/108 398/441/151 397/439/151
f 208/320/108 209/445/108 399/442/151 398/441/151
f 209/445/108 210/205/108 400/443/151 399/442/151
f 210/320/101 211/321/101 401/383/101 400/382/101
f 211/206/73 212/444/73 402/439/152 401/440/152
f 212/444/73 213/320/73 403/441/152 402/439/152
f 213/320/73 214/445/73 404/442/152 403/441/152
f 214/445/73 205/205/73 395/443/152 404/442/152

usemtl Mat
f 409/311/104 407/310/104 405/380/104
f 409/315/153 410/319/153 408/1/108 407/4/108
f 410/323/101 406/380/101 408/320/101
f 411/324/104 409/311/104 405/380/104
f 411/327/113 412/330/113 410/319/153 409/315/153
f 412/332/101 406/380/101 410/323/101
f 413/333/104 411/324/104 405/380/104
f 413/336/115 414/339/115 412/330/113 411/327/113
f 414/341/101 406/380/101 412/332/101
f 415/342/104 413/333/104 405/380/104
f 415/345/155 416/348/155 414/339/115 413/336/115
f 416/350/101 406/380/101 414/341/101
f 417/351/104 415/342/104 405/380/104
f 417/354/25 418/357/25 416/348/155 415/345/155
f 418/351/101 406/380/101 416/350/101
f 419/350/104 417/351/104 405/380/104
f 419/359/156 420/362/156 418/357/25 417/354/25
f 420/342/101 406/380/101 418/351/101
f 421/341/104 419/350/104 405/380/104
f 421/364/124 422/367/124 420/362/156 419/359/156
f 422/333/101 406/380/101 420/342/101
f 423/332/104 421/341/104 405/380/104
f 423/369/126 424/372/126 422/367/124 421/364/124
f 424/324/101 406/380/101 422/333/101
f 425/323/104 423/332/104 405/380/104
f 425/374/157 426/377/157 424/372/126 423/369/126
f 426/311/101 406/380/101 424/324/101
f 427/320/104 425/323/104 405/380/104
f 427/379/73 428/351/73 426/377/157 425/374/157
f 428/310/101 406/380/101 426/311/101
f 429/382/104 427/320/104 405/380/104
f 429/385/158 430/388/158 428/351/73 427/379/73
f 430/390/101 406/380/101 428/310/101
f 431/391/104 429/382/104 405/380/104
f 431/394/135 432/397/135 430/388/158 429/385/158
f 432/399/101 406/380/101 430/390/101
f 433/400/104 431/391/104 405/380/104
f 433/403/137 434/406/137 432/397/135 431/394/135
f 434/408/101 406/380/101 432/399/101
f 435/409/104 433/400/104 405/380/104
f 435/412/160 436/415/160 434/406/137 433/403/137
f 436/417/101 406/380/101 434/408/101
f 437/379/104 435/409/104 405/380/104
f 437/420/23 438/423/23 436/415/160 435/412/160
f 438/379/101 406/380/101 436/417/101
f 439/417/104 437/379/104 405/380/104
f 439/425/161 440/428/161 438/423/23 437/420/23
f 440/409/101 406/380/101 438/379/101
f 441/408/104 439/417/104 405/380/104
f 441/430/146 442/433/146 440/428/161 439/425/161
f 442/400/101 406/380/101 440/409/101
f 443/399/104 441/408/104 405/380/104
f 443/435/148 444/438/148 442/433/146 441/430/146
f 444/391/101 406/380/101 442/400/101
f 445/390/104 443/399/104 405/380/104
f 445/440/162 446/443/162 444/438/148 443/435/148
f 446/382/101 406/380/101 444/391/101
f 407/310/104 445/390/104 405/380/104
f 407/206/108 408/205/108 446/443/162 445/440/162
f 408/320/101 406/380/101 446/382/101

